<?xml version="1.0" encoding="utf-8"?>
<!-- Generator: Adobe Illustrator 16.0.3, SVG Export Plug-In . SVG Version: 6.00 Build 0)  -->
<!DOCTYPE svg PUBLIC "-//W3C//DTD SVG 1.1//EN" "http://www.w3.org/Graphics/SVG/1.1/DTD/svg11.dtd">
<svg version="1.1" id="レイヤー_1" xmlns="http://www.w3.org/2000/svg" xmlns:xlink="http://www.w3.org/1999/xlink" x="0px"
	 y="0px" width="104px" height="366.999px" viewBox="-2 -42.5 104 366.999" enable-background="new -2 -42.5 104 366.999"
	 xml:space="preserve">
<g id="spine-body_1_">
	<g opacity="0.7">
		<path fill="#707070" d="M2.727-29.563c0,5.09,0,290.029,0,341.214c0,5.055,2.333,7.83,6.282,7.83c21.509,0,80.503-0.001,82.51,0
			c2.375,0.001,5.776-2.083,5.776-5.926c0-45.799,0-341.663,0-345.636c0-4.306-3.57-5.396-5.776-5.396c-1.864,0-60.979,0-82.51,0
			C5.06-37.478,2.727-35.157,2.727-29.563z M80.522,248.5H20.736V35.891h59.786V248.5z"/>
	</g>
</g>
<g id="spine-decoration">
	<g>
		<rect x="9.009" y="-37.479" fill="#616161" width="5.25" height="356.958"/>
		<rect x="86.27" y="-37.479" fill="#616161" width="5.25" height="356.958"/>
		<rect x="10.322" y="13.792" fill="#616161" width="76.136" height="6.769"/>
		<rect x="10.322" y="24.543" fill="#616161" width="76.136" height="6.769"/>
	</g>
</g>
<rect x="2.727" y="262.5" fill="#F4F4F2" width="99.294" height="43"/>
<g id="spine-line">
	<g>
		<path d="M102.022-32.083c0-3.611-1.492-6.635-4.201-8.516c-2.385-1.654-4.973-1.902-6.303-1.902H9.009
			C2.116-42.499-2-37.664-2-29.564v341.212c0,7.807,4.321,12.852,11.009,12.852H91.52c5.071,0,10.502-4.397,10.502-10.947v-70.103
			C102.022,140.984,102.021-29.076,102.022-32.083z M97.295,313.552c0,3.845-3.401,5.929-5.776,5.928c-2.007-0.001-61,0-82.51,0
			c-3.949,0-6.282-2.774-6.282-7.832c0-51.182,0-336.121,0-341.212c0-5.593,2.333-7.915,6.282-7.915c21.53,0,80.646,0,82.51,0
			c2.206,0,5.776,1.091,5.776,5.396C97.294-28.11,97.295,267.755,97.295,313.552z"/>
	</g>
</g>
<rect x="-2" y="259" width="104.021" height="3.5"/>
<rect x="-2" y="303.75" width="104.021" height="3.5"/>
</svg>
