<svg xmlns="http://www.w3.org/2000/svg" viewBox="0 0 122.262 160.755" aria-hidden="true" focusable="false">
  <g class="rack-body">
    <path fill="#605C4F" d="M18.91 53.635c-.022 4.684.525 13.307 2.317 14.993 2.125 2 34.563 1.563 36.125 0 1.219-1.219 1.601-10.043 1.473-14.993H18.91Z"/>
    <path fill="#625C45" d="M63.733 53.635c.136 4.59-.051 8.048-.262 10.266-.508 5.316-1.352 7.56-3.345 8.888-.938.625-2.658 1.771-19.048 2.027v35.338c-3.759-3.289-16.137-.932-19.733 4.229-7.204 10.336-5.168 33.985 6.265 39.467s34.142-2.193 36.178-6.265c1.842-3.683 1.505-79.511 1.424-93.949h-1.479Z"/>
    <path fill="#494E57" d="M5 5h117.27v43.635H5z"/>
  </g>
  <g class="rack-decoration"/>
  <g class="rack-line" fill="#A0A0A0">
    <path d="M5 0C2.239 0 0 2.239 0 5v43.635c0 2.762 2.239 5 5 5h117.262v-5H5V5h117.262V0H5Z"/>
    <path d="m63.594 50.334-4.991.294c.5 2.375.313 16.438-1.25 18s-34 2-36.125 0-2.5-13.75-2.25-17.125l-4.986-.369c-.012.164-.92 16.684 3.81 21.135 1.294 1.219 2.748 2.589 18.214 2.589 1.077 0 2.223-.007 3.439-.021 17.903-.203 19.704-1.403 20.672-2.049 1.993-1.328 2.837-3.571 3.345-8.888.258-2.724.491-7.288.122-13.566Z"/>
    <path d="M65.202 52.033c.054 8.786.514 91.696-1.415 95.552-2.036 4.071-24.745 11.746-36.178 6.265s-13.469-29.131-6.265-39.467c3.597-5.16 15.975-7.518 19.733-4.229V73.576l-5-.057v30.127c-6.416-.192-15.111 2.533-18.835 7.877-4.987 7.156-6.503 19.626-3.685 30.325 2.101 7.978 6.324 13.841 11.89 16.51 3.318 1.591 7.433 2.397 12.228 2.397 11.306 0 27.639-5.046 30.584-10.935.8-1.6 1.795-3.591 1.997-51.901.087-20.995-.029-41.819-.055-45.943l-4.989.067Z"/>
    <g fill="none" stroke="#A0A0A0" stroke-width="3" stroke-linecap="round" stroke-linejoin="round" stroke-miterlimit="10">
      <path d="M52.667 51.11c-.156 7.048-.47 15.349 2.506 15.349 1.786 0 1.41-7.205 1.41-7.205"/>
      <path d="M58.932 73.505v64.37"/>
      <path d="M40.139 108.431c6.891 4.386 9.867 16.757 5.481 25.527-1.566-4.541-4.542-8.613-6.108-7.83s-1.723 12.373 0 15.035 7.83 2.35 9.396-1.723"/>
    </g>
  </g>
</svg>
