<?xml version="1.0" encoding="utf-8"?>
<!-- Generator: Adobe Illustrator 16.0.3, SVG Export Plug-In . SVG Version: 6.00 Build 0)  -->
<!DOCTYPE svg PUBLIC "-//W3C//DTD SVG 1.1//EN" "http://www.w3.org/Graphics/SVG/1.1/DTD/svg11.dtd">
<svg version="1.1" id="レイヤー_1" focusable="false"
	 xmlns="http://www.w3.org/2000/svg" xmlns:xlink="http://www.w3.org/1999/xlink" x="0px" y="0px" width="122.262px"
	 height="160.754px" viewBox="0 0 122.262 160.754" enable-background="new 0 0 122.262 160.754" xml:space="preserve">
<g>
	<path fill="#736E5A" d="M59.899,52.877c-0.148,5.909,0.298,16.445,1.722,17.9c1.822,1.866,39.693,2.388,42.175,0
		c2.093-2.013,2.73-12.308,2.705-17.9H59.899z"/>
	<path fill="#625C45" d="M58.537,53.635l-1.48,0.001c-0.081,14.437-0.418,90.264,1.424,93.948
		c2.036,4.072,24.745,11.748,36.18,6.266c11.433-5.482,13.469-29.131,6.265-39.467c-3.595-5.16-15.973-7.518-19.733-4.229V74.816
		c-16.39-0.256-18.109-1.402-19.048-2.027c-1.993-1.328-2.837-3.572-3.345-8.888C58.588,61.683,58.4,58.225,58.537,53.635
		L58.537,53.635z"/>
	<path fill="none" stroke="#A0A0A0" stroke-width="2" stroke-linecap="round" stroke-linejoin="round" stroke-miterlimit="10" d="
		M65.687,59.254c0,0-0.376,7.205,1.41,7.205c2.978,0,2.662-8.301,2.506-15.349"/>
	<path fill="#494E57" d="M120.139,51.11H0V2.877h120.139V51.11z"/>
</g>
<g>
	<path fill="#A0A0A0" d="M58.797,63.9c0.508,5.317,1.352,7.56,3.345,8.888c0.968,0.646,2.771,1.846,20.672,2.049
		c1.216,0.014,2.362,0.021,3.439,0.021c15.466,0,16.92-1.37,18.214-2.589c4.731-4.451,3.823-20.971,3.81-21.135l-3.825-0.024
		c0.25,3.375-0.832,14.575-2.25,17.125c-2.396,4.309-36.548,3.309-38.863,0.393c-1.563-1.562-1.75-15.625-1.25-18l-3.412-0.294
		C58.307,56.612,58.54,61.176,58.797,63.9z"/>
	<path fill="#A0A0A0" d="M57.059,52.043l-3.86-0.067c-0.026,4.124-0.143,24.947-0.056,45.942c0.202,48.311,1.197,50.301,1.997,51.9
		c2.945,5.891,18.15,10.936,29.456,10.936c4.795,0,8.911-0.805,12.229-2.396c5.565-2.668,9.787-8.53,11.89-16.51
		c2.818-10.699,1.301-23.168-3.687-30.324c-3.723-5.344-13.806-8.084-20.222-7.893V73.504l-3.613,0.072v36.578
		c3.759-3.291,16.137-0.932,19.733,4.229c7.204,10.336,5.168,33.987-6.265,39.467c-11.435,5.48-34.144-2.195-36.18-6.266
		c-1.929-3.855-1.469-86.765-1.415-95.551L57.059,52.043z"/>
	<g>
		<path fill="none" stroke="#A0A0A0" stroke-width="2" stroke-linecap="round" stroke-linejoin="round" stroke-miterlimit="10" d="
			M63.338,137.876V73.505"/>
		<path fill="none" stroke="#A0A0A0" stroke-width="2" stroke-linecap="round" stroke-linejoin="round" stroke-miterlimit="10" d="
			M73.362,139.439c1.566,4.074,7.674,4.385,9.396,1.723s1.566-14.252,0-15.035c-1.566-0.781-4.542,3.289-6.108,7.83
			c-4.386-8.77-1.409-21.141,5.481-25.525"/>
	</g>
	<path fill="#A0A0A0" d="M0.008,0v3.544h118.797v46.79H0.008v3.301H117.27c2.763,0,5-2.238,5-5V5c0-2.761-2.238-5-5-5H0.008z"/>
</g>
</svg>
